<svg id="Layer_1" data-name="Layer 1" xmlns="http://www.w3.org/2000/svg" viewBox="0 0 17 17"><title>humburger_2</title><path fill="ffffff" d="M1.7,0a1.71,1.71,0,0,0,0,3.41A1.71,1.71,0,1,0,1.7,0ZM8.5,0a1.71,1.71,0,1,0,1.69,1.7A1.7,1.7,0,0,0,8.5,0Zm6.8,3.41A1.71,1.71,0,1,0,13.59,1.7,1.71,1.71,0,0,0,15.3,3.41ZM1.7,6.81A1.69,1.69,0,1,0,3.41,8.5,1.7,1.7,0,0,0,1.7,6.81Zm6.8,0A1.69,1.69,0,1,0,10.19,8.5,1.69,1.69,0,0,0,8.5,6.81Zm6.8,0A1.69,1.69,0,1,0,17,8.5,1.71,1.71,0,0,0,15.3,6.81ZM1.7,13.59A1.71,1.71,0,1,0,3.41,15.3,1.71,1.71,0,0,0,1.7,13.59Zm6.8,0a1.71,1.71,0,1,0,1.69,1.71A1.71,1.71,0,0,0,8.5,13.59Zm6.8,0a1.71,1.71,0,1,0,0,3.41,1.71,1.71,0,0,0,0-3.41Z" fill-rule="evenodd"/></svg>